<?xml version="1.0" encoding="UTF-8"?>
<!DOCTYPE svg PUBLIC "-//W3C//DTD SVG 1.1//EN" "http://www.w3.org/Graphics/SVG/1.1/DTD/svg11.dtd">
<!-- Creator: CorelDRAW 2018 (64-Bit Evaluation Version) -->
<svg xmlns="http://www.w3.org/2000/svg" xml:space="preserve" width="170.677mm" height="132.292mm" version="1.1" style="shape-rendering:geometricPrecision; text-rendering:geometricPrecision; image-rendering:optimizeQuality; fill-rule:evenodd; clip-rule:evenodd"
viewBox="0 0 16149.52 12517.5"
 xmlns:xlink="http://www.w3.org/1999/xlink">
 <defs>
  <style type="text/css">
   <![CDATA[
    .fil2 {fill:#ED3237}
    .fil1 {fill:#00AFEF}
    .fil3 {fill:#005BFF}
    .fil0 {fill:white}
   ]]>
  </style>
 </defs>
 <g id="Layer_x0020_1">
  <metadata id="CorelCorpID_0Corel-Layer"/>
  <g id="_2322318912832">
   <path class="fil0" d="M14772.59 12517.49l-13393.7 0c-760.83,0 -1378.88,-618.05 -1378.88,-1378.88l0 -9759.72c0,-760.83 618.05,-1378.88 1378.88,-1378.88l13391.75 0.01c760.83,0 1378.88,618.05 1378.88,1378.88l0 9759.72c1.96,760.83 -616.09,1378.88 -1376.93,1378.88l0 -0.01z"/>
   <path class="fil1" d="M15369.12 1369.11c0,-322.71 -264.04,-586.76 -586.76,-586.76l-13413.26 0c-322.71,0 -586.76,264.04 -586.76,586.76l0 2348.99 14584.82 0 0 -2348.99 1.96 0zm-12707.2 1879.58c-551.55,0 -1001.4,-449.84 -1001.4,-1001.4 0,-551.55 449.84,-1001.4 1001.4,-1001.4 551.55,0 1001.4,449.84 1001.4,1001.4 0,551.55 -447.9,1001.4 -1001.4,1001.4zm5511.59 -133l-2789.04 0c-471.36,0 -854.71,-383.35 -854.71,-854.71 0,-471.36 383.35,-854.71 854.71,-854.71l2789.04 0c471.36,0 854.71,383.35 854.71,854.71 0,471.36 -383.35,854.71 -854.71,854.71z"/>
   <path class="fil2" d="M2227.72 11044.72l5844.1 0c107.57,0 195.59,-88.02 195.59,-195.59 0,-107.57 -88.02,-195.59 -195.59,-195.59l-5844.1 0.01c-166.25,0 -301.21,-134.96 -301.21,-301.21l0 -3770.89c0,-107.57 -88.02,-195.59 -195.59,-195.59 -107.57,0 -195.59,88.02 -195.59,195.59l0 3772.85c1.96,379.44 310.98,690.42 692.38,690.42l0.01 0z"/>
   <path class="fil0" d="M2661.93 1637.07c-336.4,0 -610.23,273.82 -610.23,610.23 0,336.4 273.82,610.23 610.23,610.23 336.4,0 610.23,-273.82 610.23,-610.23 0,-336.4 -273.82,-610.23 -610.23,-610.23z"/>
   <path class="fil2" d="M2661.93 1245.89c-551.55,0 -1001.4,449.84 -1001.4,1001.4 0,551.55 449.84,1001.4 1001.4,1001.4 551.55,0 1001.4,-449.84 1001.4,-1001.4 0,-551.55 -447.9,-1001.4 -1001.4,-1001.4zm0 1611.62c-336.4,0 -610.23,-273.82 -610.23,-610.23 0,-336.4 273.82,-610.23 610.23,-610.23 336.4,0 610.23,273.82 610.23,610.23 0,336.4 -273.82,610.23 -610.23,610.23z"/>
   <path class="fil0" d="M8173.52 1799.4l-2789.04 0c-254.26,0 -463.54,207.32 -463.54,463.54 0,256.21 207.32,463.54 463.54,463.54l2789.04 0.01c254.26,0 463.54,-207.32 463.54,-463.54 0,-256.21 -209.28,-463.54 -463.54,-463.54l0 -0.01z"/>
   <path class="fil2" d="M8173.52 1408.23l-2789.04 0c-471.36,0 -854.71,383.35 -854.71,854.71 0,471.36 383.35,854.71 854.71,854.71l2789.04 0.01c471.36,0 854.71,-383.35 854.71,-854.71 0,-471.36 -383.35,-854.71 -854.71,-854.71l0 -0.01zm0 1316.29l-2789.04 0c-254.26,0 -463.54,-207.32 -463.54,-463.54 0,-256.21 207.32,-463.54 463.54,-463.54l2789.04 0c254.26,0 463.54,207.32 463.54,463.54 0,256.21 -209.28,463.54 -463.54,463.54z"/>
   <path class="fil3" d="M14782.36 0.01l-13413.26 0c-754.96,0 -1369.1,614.14 -1369.1,1369.1l0 9779.28c0,754.96 614.14,1369.1 1369.1,1369.1l13411.3 0c754.96,0 1369.1,-614.14 1369.1,-1369.1l0 -9779.28c1.96,-754.96 -612.18,-1369.1 -1367.14,-1369.1zm586.76 11148.38c0,322.71 -264.04,586.76 -586.76,586.76l-13413.26 0c-322.71,0 -586.76,-264.04 -586.76,-586.76l0 -7039.12 14584.82 0 0 7039.12 1.96 0zm0 -7430.29l-14584.82 0 0 -2348.99c0,-322.71 264.04,-586.76 586.76,-586.76l13411.3 0c322.71,0 586.76,264.04 586.76,586.76l0 2348.99z"/>
   <path class="fil3" d="M7050.86 8537.32l-2235.54 -886.01 2235.54 -854.71 0 -909.46 -3203.69 1386.69 0 772.57 3203.69 1392.57 0 -901.65zm2127.97 -3321.04l-672.82 0 -1157.86 4834.87 661.07 0 1169.6 -4834.87zm3504.9 2063.42l-3207.6 -1386.69 0 895.77 2237.5 870.36 -2237.5 880.14 0 903.61 3207.6 -1396.48 0 -766.7z"/>
  </g>
 </g>
</svg>
